<svg id="Layer_1" data-name="Layer 1" xmlns="http://www.w3.org/2000/svg" width="226.9152" height="298.3538" viewBox="0 0 226.9152 298.3538"><defs><style>.cls-1{fill:#d5dad3;}.cls-2{fill:none;stroke:#000;stroke-miterlimit:10;}</style></defs><path class="cls-1" d="M299.45,432.57l-1.72-1.02.25-.43c3.26-5.54.38-28.64.26-29.62l-2.49-19.46-2.1-13.29-2.3-12.43-5.73-23.98-7.31-27.49.34-.4a4.8636,4.8636,0,0,1,4.23-2.04c2.9.32,4.8,3.79,4.88,3.94l.11.19.37,10.33c2.64,18.21,12.13,23.17,12.22,23.22,4.36,2.73,20.29-7.57,29.32-14.71,9.36-5.63,10.64-9.1,10.57-10.67a2.9683,2.9683,0,0,0-1.4-2.3c-11.78,2.81-19.47,2.57-22.86-.73a5.3962,5.3962,0,0,1-1.66-4.81c.14-4.7,1.68-7.96,4.58-9.59,6.06-3.42,15.56,1.85,15.96,2.08l.12.08c3.21,2.89,6.06,3.93,8.53,3.15,5.33-1.71,7.77-11.29,8.03-12.37l.06-.19c4.62-9.36,3.73-12.07,3.13-12.8a2.052,2.052,0,0,0-1.95-.47l-39.93,13.76-.04-1.36c-.2-7.61,8.34-10.93,8.42-10.96l12.88-3.37,16.44-4.99a8.3854,8.3854,0,0,0,6.31-3.81c5.35-8.3-.26-26.98-.32-27.17-1.92-14.82-17.3-38.69-21.57-45.08-.77,2.36-1.23,7.48-1.29,11.65,4.95,27.77-16.98,48.03-17.92,48.88-23.81,24.35-31.94,22-33.32,21.28-3.96-1.26-6.28-3.3-6.82-6.03-1.09-5.59,5.76-11.74,7.15-12.91l7.33-8.05.28-.08c12.11-3.16,29.22-34.02,29.39-34.33l.15-.2c4.63-4.17,6.3-23.94,6.55-27.23l-39.09-34.12,3.47,10.41c5.97,14.55-3.13,43.66-3.52,44.89-9.9,23.05-18.66,30.45-24.27,32.62-3.89,1.5-6.28.53-6.54.41-2.65-.84-4.3-2.45-4.84-4.76-2.14-9.05,14.77-25.61,15.49-26.31,15.65-18.72,12.52-48.32,12.48-48.62l-.02-.27.1-.23a6.4975,6.4975,0,0,0-.29-5.58c-3.87-7.38-20.6-11.47-20.77-11.5l-.31-.08-.21-.23c-.75-.79-9.61-2.24-20.95-3.47,6.67,5.15,10.35,15.22,10.78,16.44,5.97,11.84-1.7,25.53-2.59,27.06-7.25,15.26-15.5,12.22-15.85,12.08-4.79-1.95-7.65-6.23-8.25-12.39a28.6633,28.6633,0,0,1,.5-8.6l.09-.22c1.14-1.89,3.13-13.46,4.12-20.31,1.57-6.58.95-11.38-1.83-14.31-4.3-4.51-12.68-3.32-13.62-3.17l-.11.01-10.41.01-20.51.73c-4.83-.67-5.85.1-5.98.23l-.03.11a4.3337,4.3337,0,0,0-.27,3.43c2.87,4.52-2.35,9.33-2.58,9.54-5.13,3.56-7.65,7.28-7.55,11.11.19,6.87,8.67,12.11,8.75,12.16,14.69,5.95,16.82,17.77,16.9,18.27l.04.22-.06.21c-1.22,4.34-3.4,7.03-6.5,8-6.05,1.9-13.27-3.45-14.81-4.67-4.81-1.95-8.88-15.69-10.78-23.2l-3.51,12.11c-3.07,9.47-2.56,17.13,1.51,22.79,7.2,10.02,23.32,10.8,25.14,10.85l7.92,1.16c13.49,3.23,20.91,7.74,22.1,13.41,1.17,5.6-4.11,10.1-5.18,10.95l-.2.12c-8.59,3.52-19.69.72-32.15-8.07a109.1986,109.1986,0,0,1-16.07-14.1c-2.71-1.21-7.22-11.24-10.84-20.28l-1.02,15.27-.41,18.29c-1.25,6.42,7.24,13.83,8.22,14.65l11.85,9.67c3.32,3.51,15.66,5.59,18.1,5.98l.06.01,7.32-.01,17.66-.46c19.57.7,21.06,9.47,21.16,10.47l.02.29-.11.25c-6.48,13.05-24.65,5.34-25.42,5.01l-14.81-5.5-20.53-9.92c-8.33-3.88-17.2-12.14-18.44-13.32-2.9-1.46-7.21-7.26-10.24-11.74l2.67,11.92,4.29,19.37,5.59,24.42c2.16,13.79,27.8,18.49,28.06,18.53l13.27.29,20.46-.23.28.22c2.97,2.33,4.21,4.65,3.68,6.9-1.13,4.86-10.4,7.16-12.25,7.58l-.19.03-16.36.08-29.45.49,24,18c11.47,10.62,23.34,11.66,35.31,3.13l.1-.07c.83-.59,1.2-.84,1.62-.84a99.7236,99.7236,0,0,0,10.12-7.87,39.9821,39.9821,0,0,1,13.85-7.71l1.32-.4-.04,1.38c-.12,3.82-3.67,9.84-4.75,11.59-1.7,4.53-14.03,11.45-14.55,11.74a15.8274,15.8274,0,0,0-7.15,6.79c8.32-3.69,14.57-3.31,14.85-3.3.74.03,4.66-.04,11.63-.22.43-.01.68-.02.7-.02,12.08-.8,20.57-4.72,25.2-11.67,7.46-11.2,2.32-26.67,2.27-26.82l-3.28-14.68-3.12-9.33-1.76-4.34-1.38-3.81-1.11-2.2-3.48-8.02-1.91-4.97-3.96-8.64-2.16-3.8-6.08-10.9-8-13.39-11.91-20.98-4.49-7.53-12.47-20.64-8.39-14.05-18.69-30.91,1.66-1.07,14.94,21.99,8.06,11.41,7.36,11.57,4.3,6.92,11.73,18.11,7.35,13.36,3.9,6.62,3.08,4.68,3.9,7.35,3.44,5.4,3.38,6.08,4.39,7.17,3.66,5.76,4.36,7.22,2.3,4.58,3.33,11.33a72.3,72.3,0,0,0,5.28,16.49c.32.25.74,1.03,1.19,7.29l1.33,5.12,2.35,7.74,2.26,7.91,1.6,8.32,2.58,10.32.69,3.31.8,5.7,1.13,6.97.68,6.71.68,5.51,1.85,24.42-2,.16-1.85-24.38-.67-5.48-.68-6.67-1.12-6.93-.79-5.66-.67-3.21-2.58-10.34-1.6-8.29-2.24-7.81-2.37-7.76-1.37-5.34a44.1125,44.1125,0,0,0-.76-6.35c-.97-1.22-4.75-11.03-5.69-17.32l-3.25-11.03-2.2-4.36-4.31-7.14-3.65-5.76-4.41-7.22L249.21,253l-3.44-5.41-3.89-7.33-3.06-4.64-3.94-6.69-7.33-13.33-11.7-18.07-4.3-6.94-7.33-11.52-3.06-4.32.46.76,8.39,14.05,16.98,28.19,11.91,20.98,8,13.4,8.3,14.8,4.02,8.78,1.91,4.99,3.44,7.93,1.13,2.26,1.41,3.88,1.76,4.36,3.17,9.49,3.27,14.67c.04.1,5.48,16.47-2.52,28.48-5,7.5-14.01,11.72-26.79,12.56l-.75.02c-2.61.07-10.54.28-11.77.22a34.7017,34.7017,0,0,0-16.01,4.12l-1.69.86.24-1.88c.03-.25.86-6.11,8.91-10.35,2.58-1.42,12.47-7.42,13.68-10.8l.07-.15c.64-1.04,3.44-5.71,4.28-9.17a38.7791,38.7791,0,0,0-11.6,6.78c-9.02,7.62-10.63,8.26-11.2,8.35-.11.07-.28.19-.47.32l-.33.22c-12.84,9.14-25.54,8.06-37.74-3.24l-28.6-21.44,35.31-.58,16.21-.08c3.65-.82,9.95-3.01,10.66-6.05.32-1.37-.59-2.93-2.7-4.65l-19.78.23-13.44-.31c-1.19-.2-27.44-4.86-29.83-20.14l-5.57-24.36-4.29-19.38-5.23-23.27,3.16,5.15c3.95,6.36,9.49,14.16,12.42,15.69-2.63-2.4-9.16-9.1-7.89-15.52l.39-18.16,1.64-24.38,1.62,4.31c4.61,12.2,9.9,23.1,11.3,23.32l.37.06.24.28c.26.29,26.91,29.54,45.98,21.92.59-.48,5.29-4.44,4.35-8.89-1-4.78-8.09-8.88-20.52-11.86l-7.64-1.12a45.9261,45.9261,0,0,1-10.14-1.51c-5.17-1.35-12.24-4.21-16.52-10.16-4.46-6.21-5.06-14.46-1.79-24.54l5.65-19.51.84,3.86c1.98,9.14,6.59,24.15,10.53,25.51l.24.13c.86.67,7.9,6.1,13.13,4.45,2.36-.75,4.08-2.91,5.12-6.42-.35-1.6-2.97-11.4-15.77-16.6-.46-.27-9.63-5.87-9.86-13.89-.13-4.54,2.65-8.82,8.27-12.7.7-.68,3.96-4.1,2.11-7.03a6.07,6.07,0,0,1,.13-5.07,1.8718,1.8718,0,0,1,.61-.97c1.16-1,3.57-1.22,7.38-.68l20.37-.74h10.3c.75-.14,7.95-1.32,13.21,2.04l8.93.85c7.21.69,24.14,2.48,26.91,4.38,2.21.54,17.73,4.59,21.86,12.47a8.4187,8.4187,0,0,1,.45,7.04c.22,2.39,2.49,31.41-13.04,49.95-6.28,6.24-16.45,18.36-15.01,24.5.38,1.6,1.56,2.7,3.62,3.36.12.05,2,.81,5.18-.44,5.23-2.05,13.47-9.17,23.03-31.41.08-.25,9.2-29.63,3.52-43.49l-5.81-17.44,45.37,39.6-.04.5c-.06.96-1.52,23.6-7.05,28.89-1.12,2.04-17.46,31.37-30.26,35.08l-7.02,7.7c-.35.31-7.5,6.42-6.58,11.1.39,1.97,2.27,3.5,5.58,4.55l.17.07c.08.04,7.53,3.1,31.04-20.94.25-.22,22.18-19.93,17.33-47.28,0-1.35.15-12.49,2.58-14.47l.84-.68.62.9c2.14,3.15,20.65,30.69,22.76,47.11.04.1,6.04,19.39.04,28.68a10.1136,10.1136,0,0,1-7.59,4.67l-16.32,4.96-12.82,3.35c-.02.01-6.11,2.37-6.94,7.6l37.3-12.84a4.1458,4.1458,0,0,1,4.09,1.11c1.88,2.31.96,7.15-2.81,14.8-.34,1.44-2.98,11.71-9.34,13.75-3.17,1.01-6.64-.14-10.33-3.44-.8-.43-9.13-4.73-13.92-2.03-2.25,1.27-3.45,3.99-3.59,8.09a3.51,3.51,0,0,0,1.1,3.14c2.01,1.94,7.35,3.52,21.38.11l.35-.08.32.16a5.1454,5.1454,0,0,1,2.8,4.17c.17,3.58-3.68,7.75-11.43,12.41-.84.67-19.6,15.49-28.64,15.49a5.1032,5.1032,0,0,1-2.78-.69c-.05-.02-10.38-4.97-13.24-24.78l-.37-9.94c-.37-.61-1.68-2.55-3.23-2.72a2.7172,2.7172,0,0,0-2.15.98l7.04,26.48,5.75,24.06,2.31,12.5,2.11,13.34,2.49,19.47c.04.2,3.37,24.38-.45,30.9Zm-7.98-50.64.45,3.7,1.77,23.4h0l-1.77-23.4Zm-1.03-9.25.18,1.3Zm-73.43-4.91v.03h.01c8.6-4.39,15.7-4.26,16.49-4.22.82.04,4.75-.03,11.72-.22l.73-.02c12.43-.82,21.19-4.89,26-12.12,6.44-9.66,3.9-22.16,2.8-26.27,1.08,4.15,3.56,16.71-2.8,26.26-4.82,7.22-13.57,11.29-26,12.11l-.71.02c-2.6.07-10.53.27-11.71.22-.29-.02-6.87-.41-15.53,3.74Zm2.45-4.86a12.3817,12.3817,0,0,0-2.31,4.24l.16-.47A12.6285,12.6285,0,0,1,219.46,362.91Zm-63.5-33.75,26.3,19.72c11.84,10.96,24.12,12.02,36.53,3.18l.33-.23a6.8215,6.8215,0,0,1,.65-.43l.19-.06c.02,0,.04-.01.07-.01l-.09-.02a5.2463,5.2463,0,0,0-1.03.66l-.1.07c-12.41,8.83-24.7,7.77-36.53-3.18Zm88.24,6.54a39.8394,39.8394,0,0,0-13.48,7.5c-2.86,2.42-7.06,5.83-9.27,7.35a116.3378,116.3378,0,0,0,9.25-7.32,39.4861,39.4861,0,0,1,12.75-7.27l.75-.26Zm-.03.41-.06.39c-.54,3.69-3.87,9.24-4.54,10.31l-.05.1a3.6721,3.6721,0,0,1-.2.47,3.7086,3.7086,0,0,0,.23-.5C240.31,345.63,243.81,339.81,244.17,336.11Zm38.51-32.71h.03c2.08.23,3.62,2.59,4.05,3.31l.06.11.37,10.15c2.78,19.22,12.62,23.95,12.72,23.99,2.64,1.66,8.55-.26,17.15-5.51,3.31-2.03,6.43-4.18,8.81-5.9-7.24,5.21-21.19,14.37-25.9,11.42-.37-.18-10.01-5.18-12.73-24l-.37-10.12c-.11-.2-1.79-3.17-4.11-3.43A.1077.1077,0,0,0,282.68,303.4ZM215.22,194.63l1.47,2.37,11.72,18.09,7.34,13.35,3.92,6.66,3.07,4.66,3.89,7.34,3.44,5.41,3.38,6.07,4.4,7.19,3.66,5.76,4.34,7.18,2.25,4.47,3.29,11.18c.96,6.38,4.72,15.94,5.55,16.99.47.84.86,6.13.91,6.73l1.35,5.23,2.36,7.75,2.25,7.85h0l-2.25-7.86-2.36-7.75-1.35-5.23c-.42-5.8-.81-6.61-.88-6.72-.74-.92-4.59-10.52-5.58-17.01l-3.29-11.18-2.25-4.47-4.33-7.18-3.65-5.76-4.4-7.2-3.38-6.07-3.45-5.4-3.9-7.34-3.07-4.66-3.92-6.65-7.34-13.34L216.69,197Zm-2.37,121.2.14.11c2.53,2.03,3.6,3.97,3.18,5.77a4.174,4.174,0,0,1-.6,1.35,4.2772,4.2772,0,0,0,.62-1.36c.43-1.83-.69-3.81-3.32-5.88h0l-20.12.23-13.35-.3c-.33-.04-26.69-4.84-28.95-19.33l-5.58-24.39-8.17-36.67.86,1.32c-.37-.58-.66-1.04-.85-1.34l-.04-.07,3.91,17.39,4.29,19.38,5.58,24.39c2.29,14.61,27.86,19.15,28.95,19.34l13.35.3Zm105.88-3.55c3.81,1.73,10.58,1.44,20.19-.87l.15-.04c-.01,0-.01-.01-.02-.01h0C327.74,314.12,321.82,313.63,318.73,312.28Zm7-14.99a28.0062,28.0062,0,0,1,8.66,2.93l.1.07c2.71,2.44,5.27,3.65,7.6,3.58-2.34.05-4.89-1.17-7.6-3.62l-.03-.02A28.4107,28.4107,0,0,0,325.73,297.29Zm-11.8-8.18v.03l38.76-13.36h.08a3.1618,3.1618,0,0,1,.72-.08,4.331,4.331,0,0,0-.94.1ZM199.6,278.7l3.65,1.35c1.88.82,18.2,7.49,24.16-4.5v-.01c-.03-.27-.72-5.54-10.1-8.15,8.39,2.36,9.83,6.87,10.06,7.98l.04.17-.08.16c-2.56,5.01-7.49,7.37-14.25,6.83a33.6608,33.6608,0,0,1-9.81-2.46Zm-28.74-13.75,18,8.7,14.77,5.47a32.7079,32.7079,0,0,0,9.53,2.4c6.35.51,10.78-1.55,13.19-6.12-.36-1.34-2.95-7.85-19.13-8.43l-17.63.46h-7.45A81.6428,81.6428,0,0,1,170.86,264.95Zm163.91-72.83c-1.4,1.77-1.97,9.02-2,13.4,4.95,27.83-17.4,47.89-17.63,48.09-17.13,17.51-25.98,20.88-29.8,21.3,3.81-.38,12.64-3.71,29.85-21.31.94-.86,22.48-20.76,17.63-48.08.05-4.13.57-10.9,1.75-13.02Zm-87.54,62.66,6.89,12.28Zm-71.86,10.35c2.2.52,4.22.9,5.62,1.12C179.55,266.01,177.53,265.63,175.37,265.13Zm-30.62-68.1-1.33,19.76-.4,18.23c-1.44,7.34,8.48,15.47,8.58,15.55l11.79,9.61a7.0725,7.0725,0,0,0,.8.71,6.7588,6.7588,0,0,1-.78-.7l-11.79-9.62c-1.04-.88-9.93-8.65-8.58-15.54l.4-18.23,1.32-19.73A.06.06,0,0,0,144.75,197.03Zm6.88,54.84a103.2345,103.2345,0,0,0,8.21,6.69Zm-2.16-.56c.05.03.1.05.15.08l.02.01-.04-.02A.8265.8265,0,0,1,149.47,251.31Zm10.16-27.44a108.3172,108.3172,0,0,0,13.32,11.28c12.16,8.59,22.93,11.35,31.14,7.99l.06-.04c.94-.75,5.82-4.91,4.77-9.93-.97-4.64-6.67-8.5-16.97-11.49,10.17,2.98,15.99,6.91,16.95,11.48,1.08,5.16-4.17,9.45-4.77,9.93l-.12.07c-8.15,3.3-18.87.54-31-7.99A110.9741,110.9741,0,0,1,159.63,223.87Zm125.71-74.39,4.64,13.93c5.81,14.16-3.42,43.89-3.52,44.19-9.71,22.6-18.2,29.87-23.6,31.99a10.5065,10.5065,0,0,1-3.75.79,10.3944,10.3944,0,0,0,3.71-.76c5.43-2.09,13.94-9.35,23.69-32.03.37-1.17,9.37-29.95,3.52-44.19Zm-53.57,78.74,6.84,12.01-.59-.99Zm81.36-1.13c-.83,1.25-1.72,2.53-2.64,3.82q-2.445,3.435-4.73,6.24C308.43,233.88,310.95,230.36,313.13,227.09Zm-156.45-6.15.09.03.1.03-.02-.02-.01-.01A.3049.3049,0,0,1,156.68,220.94Zm.16-52.21-4.56,15.73c-3.17,9.77-2.62,17.72,1.65,23.66,4.1,5.71,10.94,8.47,15.96,9.78a45.0728,45.0728,0,0,0,9.88,1.49c-2.15-.07-18.43-.97-25.82-11.26-4.27-5.93-4.82-13.9-1.65-23.67l4.55-15.7.02.09a.8989.8989,0,0,1-.03-.12Zm-10.31,32.82c1.76,4.39,3.4,8.16,4.85,11.17C149.6,208.97,147.8,204.69,146.53,201.55Zm40.79-11.31a14.2279,14.2279,0,0,1,.53,1.88l.02.12-.03.12c-.94,3.27-2.45,5.5-4.5,6.65,2.08-1.16,3.61-3.43,4.54-6.77A13.0233,13.0233,0,0,0,187.32,190.24Zm42.2,4.1c.16.07.33.15.5.21.31.12,7.72,2.84,14.59-11.61a35.3558,35.3558,0,0,0,1.79-3.66,32.8376,32.8376,0,0,1-1.81,3.66c-6.84,14.4-14.53,11.63-14.6,11.6C229.83,194.48,229.67,194.41,229.52,194.34Zm-5.73-19.24a27.7762,27.7762,0,0,0-.43,7.82c.54,5.43,2.9,9.03,7,10.7.06.02,6.93,2.34,13.34-11.15.11-.18,8.31-13.85,2.52-25.35-.59-1.61-5.76-15.15-14.1-17.77l-8.17-2.55a11.0736,11.0736,0,0,1,1.74,1.49c3.28,3.44,4.07,8.85,2.34,16.06C227.79,156.11,225.46,171.95,223.79,175.1Zm-55.17-24.22c-4.37,3.39-6.53,7.02-6.41,10.81.21,7.48,9.22,12.97,9.31,13.03a30.8769,30.8769,0,0,1,7.91,4.6,30.987,30.987,0,0,0-7.9-4.61c-.14-.08-9.1-5.6-9.31-13.03C162.12,157.91,164.27,154.28,168.62,150.88Zm24.34,10.33,4.02,5.92,5.19,7.35-5.19-7.35-14.4-21.19-.02.01,9.55,15.8Zm39.49-22.81c8.79,2.78,14.11,16.71,14.69,18.29a21.1729,21.1729,0,0,1,2.16,9.75,20.8942,20.8942,0,0,0-2.13-9.71c-.2-.57-4.49-12.59-12.03-17.11l-1.93-1.16C232.96,138.45,232.7,138.42,232.45,138.4Zm26.56,4.31h.01c.14.03,12.75,3.03,18.95,8.87-5.84-5.58-17.37-8.5-18.87-8.86l-.1-.02a.01.01,0,0,0,.01.01Zm-88.62,6.81h0c.95-.96,4.23-4.64,2.08-8.03a3.9242,3.9242,0,0,1-.35-1.4,4.0749,4.0749,0,0,0,.34,1.41C174.54,144.78,171.48,148.4,170.39,149.52Zm63.06-11.02,2,.21c3.14.32,10.62,1.14,16.34,2.09C246.71,139.94,239.75,139.11,233.45,138.5Zm-59.84-2.16a1.9465,1.9465,0,0,0-.62.36.9054.9054,0,0,0-.31.49l-.01.05c0-.01.01-.02.01-.03l.01-.03c0-.02.01-.03.01-.05v-.01h0a.8621.8621,0,0,1,.3-.42A2,2,0,0,1,173.61,136.34Zm40.65-1.12a19.2456,19.2456,0,0,1,6.05.89,21.2933,21.2933,0,0,0-9.16-.69A23.0824,23.0824,0,0,1,214.26,135.22Z" transform="translate(-134.36 -134.2162)"/><path class="cls-2" d="M412.03,380.07" transform="translate(-134.36 -134.2162)"/></svg>