<svg id="Layer_1" data-name="Layer 1" xmlns="http://www.w3.org/2000/svg" width="225.2276" height="297.1997" viewBox="0 0 225.2276 297.1997"><defs><style>.cls-1{fill:#fff;}.cls-2{fill:none;stroke:#000;stroke-miterlimit:10;}</style></defs><path class="cls-1" d="M299.27,431.88l-.86-.51c4.4789-18.0507-1.2444-34.8-2.1686-49.39-3.11-23.9217-11.0613-53.6562-17.3914-77,2.92-4.422,7.737-.4785,8.46,1.6105.1142.0511.4079,10.2043.43,10.2995,8.3218,38.4109,22.3416,22.32,42.35,8.8908,10.0543-6.5369,13.2117-9.9881,8.95-13.8908-11.71,2.82-19.32,2.64-22.6-.55a4.9263,4.9263,0,0,1-1.52-4.34c-.3991-14.4757,15.721-10.14,19.9-7.1192,10.1534,10.345,16.7382-5.1666,17.3293-9.5516,4.6751-10.265,5.2554-14.1387.6209-14.04L313.45,289.84c.8589-13.3049,13.4466-11.5391,20.9093-14.5107,4.8187-2.2455,20.3128-4.1154,23.051-9.0185,9.5124-26.5571-14.1791-60.1653-22.41-73.5708-1.11,2-1.63,8.6-1.69,12.69,4.98,28.01-17.54,48.32-17.76,48.52-27.3779,26.8031-33.7616,24.6-39.31,15.5214-.9908-7.64,10.9528-15.5408,14.26-20.4214,12.4994-3.1092,29.6423-34.2855,29.83-34.62,4.9687-4.3818,6.5844-25.3021,6.77-27.88l-40.66-35.49c16.1631,30.8064-5.0054,81.8384-23.4411,89.03-6.52,1.8785-8.96.1049-10.7194-3.9994C250.22,227.39,266.92,210.94,267.63,210.25c15.9219-19.1868,12.5235-48.5339,12.67-49.27,4.8141-11.0719-20.9735-17.8695-21.56-17.82-1.1238-1.4112-13.7152-2.9133-23.34-3.96,7.72,4.63,12.02,16.74,12.22,17.31,6.12,12.15-2.48,26.51-2.56,26.65-13.9684,26.4021-26.673,4.33-22.62-8.68,1.628-6.2707,8.4928-29.6066,2.2-35.17C219.89,134.32,210.64,135.99,210.54,136c-6.5951-.2518-24.1343.5219-30.94.74-6.1471-.776-6.3423.38-6.47.69-1.808,6.2017,3.8332,5.9258-2.7006,12.74-13.8783,8.4219-5.4749,20.4331,1.2916,24.07,14.619,5.93,16.639,17.8,16.659,17.92-2.4443,13.1286-16.7063,7.13-20.59,3.249-5.15-1.949-9.61-18.919-10.99-24.689l-4.03,13.9c-10.2858,30.4679,19.53,34.1449,34.9706,35.429,18.9071,3.7526,28.3209,14.0578,16.6588,23.4917-12.5583,7.9245-41.141-13.1681-47.7989-22.0923C153.61,220.4,147.58,205.63,145.12,199.34c-.7742,8.902-1.5573,26.8428-1.58,35.79-1.36,6.95,8.32,14.98,8.41,15.06l11.84,9.66c9.1157,6.1419,18.7633,6.1015,25.8,6.0905,14.5619-1.058,37.6224-1.0224,38.27,9.8306-10.0581,16.2545-30.5657,1.1075-39.6-.75C168.738,266.36,147.0852,255.04,137.79,237.97c3.7972,16.966,9.1918,41.3273,13.15,58.36,8.9374,24.6467,45.4186,18.332,62.1,18.98,10.82,7.6623-4.8586,13.4126-8.3606,13.72-10.2687-.0321-36.6587.3913-47.2294.59l25.17,18.88c12.1725,11.5835,24.8874,11.238,37.4,2.3293,4.6414-3.1161,19.2276-15.7271,24.7-15.8093-2.626,21.0907-22.3023,20.3009-26.93,31.82,15.5226-6.2433,17.2087-2.96,28.13-4.0307,28.2644-.4658,33.3722-24.4325,27.9393-39.16-1.6487-8.1428-4.6755-20.8855-8.1592-28.3692-2.0284-5.7731-5.895-13.1537-7.8694-18.98-2.8031-6.8973-8.5726-16.8956-12.23-23.41-20.0168-34.451-42.9-73-63.71-107.1l.84-.54c19.5433,28.434,40.7577,59.3486,57.35,89.56a108.264,108.264,0,0,1,6.97,12.01c1.869,2.7566,5.2785,8.525,6.83,11.48,4.5338,7.7222,10.8377,16.6331,14.69,24.72,1.9713,6.2884,6.5954,25.3411,8.7,27.96.14.09.58.43,1.05,6.97l1.34,5.21c1.2046,3.8653,3.536,11.7522,4.62,15.66.9335,6.1652,3.594,15.8215,4.86,21.92,2.4587,14.1558,4.1327,34.2855,5.09,48.75l-1,.08c-1.4843-19.8135-2.8619-43.2024-8.33-62.25-1.3528-9.38-5.333-20.05-7.57-29.2-.2207-9.15-4.488-11.3793-6.4395-23.62l-3.26-11.1c-3.8452-8.0285-10.1276-16.9144-14.63-24.59-1.544-2.9306-4.96-8.7421-6.82-11.48a108.3415,108.3415,0,0,0-6.95-11.98c-6.1379-10.8742-15.764-27.751-22.9706-38.09-6.7291-11.3608-16.1747-24.9384-23.7093-35.77,17.4026,28.4642,37.0847,62.0865,53.9095,90.9,3.06,5.37,10.1351,17.8913,12.29,23.53,2.7447,7.4635,6.921,15.9509,9.65,23.4,7.4845,23.2707,20.8638,61.6212-22.44,64.51-11.1078,1.044-13.9595-2.3692-29.57,4.84,1.4128-12.8687,23.55-12.2836,27.23-32.24-3.8927-.4977-23.1061,16.0987-23.6193,15.4206-12.7013,9.4608-25.7754,8.9288-38.0406-2.5708l-27.47-20.6c10.9711-.2027,39.5451-.6815,50.11-.64,2.8333-.3493,17.426-5.198,8.08-11.71-17.496-.7345-53.379,5.9037-62.7311-19.799-4.3977-18.9641-10.1688-45.1557-14.4389-64.101,7.52,12.5717,14.2605,21.4937,32.68,31.79,11.2135,4.2965,50.1005,29.1769,58.69,11.24-2.46-11.9955-31.8976-8.2911-44.74-8.5294-13.6961-1.4644-19.3453-6.0072-30.8392-15.9716-.42-.339-10.24-8.489-8.77-15.949-.04-9.9245,1.06-30.3483,1.88-40.31,3.3766,9.0706,10.2793,25.7849,12.69,25.82.4389.5239,27.0252,29.9658,46.73,22.17.56-.44,5.6-4.61,4.59-9.43.14-6.0971-17.9791-12.81-28.6007-13.3694-17.8395-.0055-36.7965-12.6511-28.0182-35.5613L156.91,166.7c3.6854,14.7433,6.4192,33.5392,24.97,32.4005,9.3875-4.2793,6.0519-15.9417-10.6192-23.961-7.4344-3.8644-15.93-16.97-1.4607-25.74,5.8566-5.9377.3826-5.8859,2.3893-12.32.964-2.0244,3.4015-1.7108,7.4505-1.32l20.46-.74c6.8314.9044,18.462-3.0094,25.24,3.6094,3.16,3.3206,3.9,8.5706,2.22,15.6006-.1.69-2.58,17.73-4.24,20.69-3.4622,12.35,7.6344,32.6245,20.84,7.7606.11-.1806,8.41-14.0806,2.52-25.7906-.7642-2.7691-7.4282-18.2893-18.95-19.44,16.6785,2.2368,40.6662,1.7208,53.1207,17.0287.6553,10.356,4.8446,31.5488-12.5279,56.4415-.2028.2-17.0328,16.78-15.1128,24.94,1.7171,3.564,3.5371,4.982,9.4695,3.2706,14.2335-6.0634,34.846-44.2886,26.8313-75.56L284.29,147.9l43.8,38.23c-.0905,1.2713-1.5063,23.5835-6.97,28.87-1.14,2.08-17.49,31.46-30.13,34.95-3.51,5.4422-23.8094,18.7831-7.7905,24.32,7.067,2.0009,55.389-27.5677,49.0716-68.7586.07-1.5108.0649-12.7612,2.8189-14.3415,5.8414,9.0773,34.17,50.0574,23.1106,75.68-2.8716,5.3176-18.4651,7.0511-23.63,9.431-6.93,2.8251-17.84,1.0128-20.19,12.1492l38.04-13.1c6.7689-.3991,4.8012,6.6307.64,15.2693-.8336,5.7687-8.2477,20.6753-18.9106,10.06-4.2321-2.7411-18.6794-6.9448-18.2893,6.4616a3.967,3.967,0,0,0,1.25,3.5193c1.977,2.0413,7.9811,3.6793,22.01.19,6.3906,4.3995.5314,10.3385-8.51,15.78-.93.74-24.19,19.04-30.9005,14.81-.37-.17-10.22-5.12-13.01-24.43l-.37-10.02c-.5552-1.5661-4.3359-4.86-6.43-1.74,6.3162,23.295,14.1562,52.7483,17.27,76.61C298.0761,396.56,304.0684,413.9991,299.27,431.88Zm-79.3-81.02Z" transform="translate(-135.51 -134.6803)"/><path class="cls-2" d="M412.03,380.07" transform="translate(-135.51 -134.6803)"/></svg>